<?xml version="1.0" encoding="UTF-8"?>
<svg id="Layer_1" xmlns="http://www.w3.org/2000/svg" version="1.1" viewBox="0 0 1000 1000">
  <!-- Generator: Adobe Illustrator 29.7.1, SVG Export Plug-In . SVG Version: 2.1.1 Build 8)  -->
  <defs>
    <style>
      .st0 {
        fill: #fff;
      }
    </style>
  </defs>
  <polygon class="st0" points="293.89 419.56 269.31 419.56 269.2 419.73 226.95 488.23 212.56 511.52 206.08 522.04 229.61 522.04 229.61 522.03 229.61 522.03 293.89 522.03 293.89 511.53 236.21 511.53 236.21 511.52 293.89 419.56"/>
  <polygon class="st0" points="376.03 419.56 310.82 419.56 310.82 433.02 310.82 454.83 310.82 522.03 311.03 522.03 377.3 522.03 377.3 512.52 377.3 511.53 331.81 511.53 331.81 496.4 331.81 476.08 377.3 476.08 377.3 465.58 331.81 465.58 331.81 464.2 331.81 438.92 331.81 430.06 377.3 430.06 377.3 419.56 376.03 419.56 376.03 419.56"/>
  <path class="st0" d="M657.19,477.84c3.46-3.07,6.21-6.8,8.13-11.12,1.94-4.3,2.91-8.93,2.91-13.78,0-9.19-3.27-17.13-9.76-23.61-6.48-6.48-14.38-9.77-23.47-9.77h-43.74v102.48h20.56v-39.44c4.93,2.3,11.17,3.56,18.61,3.72l24.24,35.72h18.39l-25.63-38.11c3.56-1.45,6.83-3.5,9.76-6.09ZM639.52,474.62c-1.72,1.15-3.5,2.02-5.35,2.6-1.85.58-3.76.88-5.7.88-.5,0-1.04-.05-1.62-.13h-.13c-4.66-.27-9.15-1.55-13.34-3.79-.65-.35-1.16-.75-1.56-1.23v-45.15h17.07c3.89,0,7.56,1.2,10.9,3.53,3.4,2.4,6.13,5.55,8.11,9.42,2.01,3.84,3,7.98,3,12.28s-1.02,8.42-3.06,12.26c-2.03,3.85-4.84,6.99-8.33,9.34Z"/>
  <polygon class="st0" points="472.06 419.56 469.06 427.2 441.27 498.05 409.78 419.56 389.38 419.56 387.54 419.56 428.97 522.03 431.86 522.03 443.15 522.03 483.34 419.56 472.06 419.56"/>
  <polygon class="st0" points="530.21 419.56 518.92 419.56 478.73 522.03 490.01 522.03 493.01 514.38 520.8 443.53 552.29 522.03 574.52 522.03 533.1 419.56 530.21 419.56"/>
  <path class="st0" d="M780.63,505.38c3-3.54,5.51-7.34,7.47-11.35,1.83-3.87,3.27-7.83,4.29-11.78,1.02-3.99,1.54-7.84,1.54-11.45,0-5.46-1.11-11.33-3.27-17.49-2.18-6.16-5.55-11.94-10.01-17.17-4.47-5.24-10.21-9.63-17.1-13.08-6.68-3.34-14.62-5.09-23.54-5.19-15.73.15-31.18,5.77-41.44,18.07-4.33,5.2-7.52,10.98-9.51,17.21-1.98,6.18-2.98,12.11-2.98,17.65s1,11.31,2.98,17.42c1.99,6.17,5.19,11.95,9.5,17.21,4.34,5.24,9.89,9.65,16.53,13.08,6.67,3.46,14.77,5.21,24.07,5.21,6.19,0,11.9-.81,16.99-2.41,5.09-1.6,9.74-3.79,13.83-6.51,4.06-2.72,7.65-5.89,10.67-9.43ZM756.47,509.68c-1.78,1.6-3.73,2.95-5.75,4.02-2.88,1.48-5.93,2.28-9.08,2.37-3.15.07-6.25-.5-9.23-1.72-1.08-.43-2.14-.98-3.21-1.59-5.65-3.33-10.36-8.69-14.03-15.98-3.71-7.34-5.71-15.67-6-24.75-.36-8.91.96-17.21,3.93-24.7,2.94-7.44,7.02-13.15,12.1-16.98,1.25-.9,2.57-1.72,3.89-2.44,2.98-1.48,6.06-2.28,9.16-2.37h.61c2.91,0,5.85.58,8.66,1.7,1.62.73,3.26,1.63,4.84,2.69,3.41,2.33,6.48,5.48,9.15,9.35,2.68,3.91,4.88,8.53,6.52,13.73,1.64,5.21,2.57,10.79,2.76,16.57.27,8.34-.92,16.2-3.52,23.33-2.59,7.09-6.23,12.72-10.82,16.78Z"/>
  <polygon class="st0" points="235.67 430.05 235.67 419.56 206.08 419.56 206.08 430.05 206.08 449.15 235.67 449.15 235.67 430.05"/>
  <path class="st0" d="M222.1,546.76l-16.02,35.37h5.2l3.89-8.84h18.81l3.89,8.84h5.31l-16.07-35.37h-5ZM216.95,569.24l7.63-17.36,7.63,17.36h-15.25Z"/>
  <path class="st0" d="M327.41,548.22c-2.19-.98-4.83-1.47-7.93-1.47h-13.8v35.37h5.05v-10.71h8.74c3.1,0,5.74-.5,7.93-1.49,2.19-.99,3.87-2.41,5.05-4.24,1.18-1.84,1.77-4.03,1.77-6.59s-.59-4.77-1.77-6.62c-1.18-1.85-2.86-3.27-5.05-4.25ZM326.68,564.95c-1.67,1.38-4.12,2.07-7.35,2.07h-8.59v-15.87h8.59c3.23,0,5.68.69,7.35,2.07,1.67,1.38,2.5,3.33,2.5,5.86s-.83,4.48-2.5,5.86Z"/>
  <path class="st0" d="M420.64,548.22c-2.19-.98-4.83-1.47-7.93-1.47h-13.8v35.37h5.05v-10.71h8.74c3.1,0,5.74-.5,7.93-1.49,2.19-.99,3.87-2.41,5.05-4.24,1.18-1.84,1.77-4.03,1.77-6.59s-.59-4.77-1.77-6.62c-1.18-1.85-2.86-3.27-5.05-4.25ZM419.91,564.95c-1.67,1.38-4.12,2.07-7.35,2.07h-8.59v-15.87h8.59c3.23,0,5.68.69,7.35,2.07,1.67,1.38,2.5,3.33,2.5,5.86s-.83,4.48-2.5,5.86Z"/>
  <path class="st0" d="M501.04,546.76l-16.02,35.37h5.2l3.89-8.84h18.81l3.89,8.84h5.31l-16.07-35.37h-5ZM495.88,569.24l7.63-17.36,7.63,17.36h-15.25Z"/>
  <path class="st0" d="M606.34,569.9c2.19-.98,3.87-2.38,5.05-4.22,1.18-1.84,1.77-4.03,1.77-6.59,0-3.87-1.31-6.9-3.94-9.07-2.63-2.17-6.23-3.26-10.81-3.26h-13.8v35.37h5.05v-10.76h8.74c.78,0,1.53-.03,2.25-.09l7.61,10.86h5.51l-8.41-11.87c.33-.12.67-.23.98-.36ZM598.26,567.07h-8.59v-15.92h8.59c3.23,0,5.68.69,7.35,2.07,1.67,1.38,2.5,3.33,2.5,5.86s-.83,4.49-2.5,5.89c-1.67,1.4-4.12,2.1-7.35,2.1Z"/>
  <polygon class="st0" points="683.66 566.31 701.39 566.31 701.39 562.02 683.66 562.02 683.66 551.15 703.57 551.15 703.57 546.76 678.6 546.76 678.6 582.13 704.27 582.13 704.27 577.73 683.66 577.73 683.66 566.31"/>
  <polygon class="st0" points="774.77 546.76 769.71 546.76 769.71 582.13 793.92 582.13 793.92 577.73 774.77 577.73 774.77 546.76"/>
</svg>